<svg xmlns="http://www.w3.org/2000/svg" width="512" height="512" viewBox="0 0 512 512" role="img" aria-label="SiteProc Logo">
  <defs>
    <linearGradient id="g" x1="0" y1="0" x2="1" y2="1">
      <stop offset="0%" stop-color="#111" />
      <stop offset="100%" stop-color="#444" />
    </linearGradient>
  </defs>
  <rect x="0" y="0" width="512" height="512" rx="96" fill="url(#g)" />
  <path d="M156 340c22 28 54 44 101 44 63 0 105-32 105-81 0-40-22-60-74-72l-46-10c-34-7-47-16-47-33 0-20 22-34 55-34 28 0 51 9 69 27l42-42c-27-30-66-46-111-46-60 0-104 32-104 80 0 49 30 74 89 86l48 10c30 6 39 14 39 30 0 21-23 35-59 35-33 0-58-11-76-33l-31 39z" fill="#fff" />
</svg>
